<?xml version="1.0" encoding="UTF-8" standalone="no"?>
<!-- Created with Inkscape (http://www.inkscape.org/) -->

<svg
   xmlns:dc="http://purl.org/dc/elements/1.1/"
   xmlns:cc="http://creativecommons.org/ns#"
   xmlns:rdf="http://www.w3.org/1999/02/22-rdf-syntax-ns#"
   xmlns:svg="http://www.w3.org/2000/svg"
   xmlns="http://www.w3.org/2000/svg"
   xmlns:sodipodi="http://sodipodi.sourceforge.net/DTD/sodipodi-0.dtd"
   xmlns:inkscape="http://www.inkscape.org/namespaces/inkscape"
   width="210mm"
   height="297mm"
   viewBox="0 0 210 297"
   version="1.1"
   id="svg8"
   inkscape:version="0.92.4 5da689c313, 2019-01-14"
   sodipodi:docname="ci.svg">
  <defs
     id="defs2" />
  <sodipodi:namedview
     id="base"
     pagecolor="#ffffff"
     bordercolor="#666666"
     borderopacity="1.0"
     inkscape:pageopacity="0.0"
     inkscape:pageshadow="2"
     inkscape:zoom="0.35355339"
     inkscape:cx="853.07865"
     inkscape:cy="945.21245"
     inkscape:document-units="mm"
     inkscape:current-layer="layer1"
     showgrid="false"
     inkscape:window-width="1276"
     inkscape:window-height="977"
     inkscape:window-x="0"
     inkscape:window-y="22"
     inkscape:window-maximized="0"
     inkscape:snap-global="false" />
  <metadata
     id="metadata5">
    <rdf:RDF>
      <cc:Work
         rdf:about="">
        <dc:format>image/svg+xml</dc:format>
        <dc:type
           rdf:resource="http://purl.org/dc/dcmitype/StillImage" />
        <dc:title />
      </cc:Work>
    </rdf:RDF>
  </metadata>
  <g
     inkscape:label="Layer 1"
     inkscape:groupmode="layer"
     id="layer1">
    <path
       sodipodi:nodetypes="cccc"
       inkscape:connector-curvature="0"
       id="path994"
       d="m 22.584275,170.18061 14.92986,14.93843 m 0,39.30953 -14.92986,14.97484"
       style="fill:none;stroke:#000000;stroke-width:0.26458332px;stroke-linecap:butt;stroke-linejoin:miter;stroke-opacity:1"
       inkscape:export-xdpi="306.87"
       inkscape:export-ydpi="306.87" />
    <path
       sodipodi:nodetypes="cccc"
       inkscape:connector-curvature="0"
       id="path996"
       d="M 25.986061,239.40341 39.21503,226.03497 m 0,-42.71131 -13.228969,-13.14305"
       style="fill:none;stroke:#000000;stroke-width:0.26458332px;stroke-linecap:butt;stroke-linejoin:miter;stroke-opacity:1"
       inkscape:export-xdpi="306.87"
       inkscape:export-ydpi="306.87" />
    <path
       sodipodi:nodetypes="cc"
       style="fill:none;stroke:#000000;stroke-width:0.26458332px;stroke-linecap:butt;stroke-linejoin:miter;stroke-opacity:1"
       d="M 29.387847,239.40341 41.010416,227.92485"
       id="path998"
       inkscape:connector-curvature="0"
       inkscape:export-xdpi="306.87"
       inkscape:export-ydpi="306.87" />
    <path
       sodipodi:nodetypes="cc"
       style="fill:none;stroke:#000000;stroke-width:0.26458332px;stroke-linecap:butt;stroke-linejoin:miter;stroke-opacity:1"
       d="M 41.010416,181.62277 29.387847,170.18061"
       id="path1000"
       inkscape:connector-curvature="0"
       inkscape:export-xdpi="306.87"
       inkscape:export-ydpi="306.87" />
    <path
       style="fill:none;stroke:#000000;stroke-width:0.26458332px;stroke-linecap:butt;stroke-linejoin:miter;stroke-opacity:1"
       d="m 37.514135,185.11904 v 39.30953"
       id="path1008"
       inkscape:connector-curvature="0"
       inkscape:export-xdpi="306.87"
       inkscape:export-ydpi="306.87" />
    <path
       style="fill:none;stroke:#000000;stroke-width:0.26458332px;stroke-linecap:butt;stroke-linejoin:miter;stroke-opacity:1"
       d="m 39.21503,183.32366 v 42.71131"
       id="path1012"
       inkscape:connector-curvature="0"
       inkscape:export-xdpi="306.87"
       inkscape:export-ydpi="306.87" />
    <path
       style="fill:none;stroke:#000000;stroke-width:0.26458332px;stroke-linecap:butt;stroke-linejoin:miter;stroke-opacity:1"
       d="m 41.010416,181.62277 v 46.30208"
       id="path1014"
       inkscape:connector-curvature="0"
       inkscape:export-xdpi="306.87"
       inkscape:export-ydpi="306.87" />
    <path
       style="fill:none;stroke:#000000;stroke-width:0.26458332px;stroke-linecap:butt;stroke-linejoin:miter;stroke-opacity:1"
       d="m 86.02819,170.18061 -14.92986,14.93843 m 0,39.30953 14.92986,14.97484"
       id="path1038"
       inkscape:connector-curvature="0"
       sodipodi:nodetypes="cccc"
       inkscape:export-xdpi="306.87"
       inkscape:export-ydpi="306.87" />
    <path
       style="fill:none;stroke:#000000;stroke-width:0.26458332px;stroke-linecap:butt;stroke-linejoin:miter;stroke-opacity:1"
       d="M 82.626404,239.40341 69.397435,226.03497 m 0,-42.71131 13.228969,-13.14305"
       id="path1040"
       inkscape:connector-curvature="0"
       sodipodi:nodetypes="cccc"
       inkscape:export-xdpi="306.87"
       inkscape:export-ydpi="306.87" />
    <path
       inkscape:connector-curvature="0"
       id="path1042"
       d="M 79.224618,239.40341 67.602049,227.92485"
       style="fill:none;stroke:#000000;stroke-width:0.26458332px;stroke-linecap:butt;stroke-linejoin:miter;stroke-opacity:1"
       sodipodi:nodetypes="cc"
       inkscape:export-xdpi="306.87"
       inkscape:export-ydpi="306.87" />
    <path
       inkscape:connector-curvature="0"
       id="path1044"
       d="M 67.602049,181.62277 79.224618,170.18061"
       style="fill:none;stroke:#000000;stroke-width:0.26458332px;stroke-linecap:butt;stroke-linejoin:miter;stroke-opacity:1"
       sodipodi:nodetypes="cc"
       inkscape:export-xdpi="306.87"
       inkscape:export-ydpi="306.87" />
    <path
       inkscape:connector-curvature="0"
       id="path1046"
       d="m 71.09833,185.11904 v 39.30953"
       style="fill:none;stroke:#000000;stroke-width:0.26458332px;stroke-linecap:butt;stroke-linejoin:miter;stroke-opacity:1"
       inkscape:export-xdpi="306.87"
       inkscape:export-ydpi="306.87" />
    <path
       inkscape:connector-curvature="0"
       id="path1048"
       d="m 69.397435,183.32366 v 42.71131"
       style="fill:none;stroke:#000000;stroke-width:0.26458332px;stroke-linecap:butt;stroke-linejoin:miter;stroke-opacity:1"
       inkscape:export-xdpi="306.87"
       inkscape:export-ydpi="306.87" />
    <path
       inkscape:connector-curvature="0"
       id="path1050"
       d="m 67.602049,181.62277 v 46.30208"
       style="fill:none;stroke:#000000;stroke-width:0.26458332px;stroke-linecap:butt;stroke-linejoin:miter;stroke-opacity:1"
       inkscape:export-xdpi="306.87"
       inkscape:export-ydpi="306.87" />
    <g
       id="g1084"
       transform="matrix(0.95879619,0,0,1.0000771,1.6918795,-0.0169579)"
       inkscape:export-xdpi="306.87"
       inkscape:export-ydpi="306.87">
      <path
         sodipodi:nodetypes="ccccc"
         inkscape:connector-curvature="0"
         id="path1054"
         d="m 41.059282,220.76136 h 1.00226 c 0.696894,0.0177 2.13225,-1.79798 0.968851,-1.87088 -1.169304,0.0334 0.07776,1.85704 0.556135,1.86885 l 1.122587,0.002"
         style="fill:none;stroke:#000000;stroke-width:0.26458332px;stroke-linecap:butt;stroke-linejoin:miter;stroke-opacity:1" />
      <path
         style="fill:none;stroke:#000000;stroke-width:0.26458332px;stroke-linecap:butt;stroke-linejoin:miter;stroke-opacity:1"
         d="m 43.705115,220.76136 h 1.00226 c 0.696894,0.0177 2.13225,-1.79798 0.968851,-1.87088 -1.169304,0.0334 0.07776,1.85704 0.556135,1.86885 l 1.122587,0.002"
         id="path1056"
         inkscape:connector-curvature="0"
         sodipodi:nodetypes="ccccc" />
      <path
         sodipodi:nodetypes="ccccc"
         inkscape:connector-curvature="0"
         id="path1058"
         d="m 46.350948,220.76136 h 1.00226 c 0.696894,0.0177 2.13225,-1.79798 0.968851,-1.87088 -1.169304,0.0334 0.07776,1.85704 0.556135,1.86885 l 1.122587,0.002"
         style="fill:none;stroke:#000000;stroke-width:0.26458332px;stroke-linecap:butt;stroke-linejoin:miter;stroke-opacity:1" />
      <path
         style="fill:none;stroke:#000000;stroke-width:0.26458332px;stroke-linecap:butt;stroke-linejoin:miter;stroke-opacity:1"
         d="m 49.138522,220.76136 h 1.00226 c 0.696894,0.0177 2.13225,-1.79798 0.968851,-1.87088 -1.169304,0.0334 0.07776,1.85704 0.556135,1.86885 l 1.122587,0.002"
         id="path1060"
         inkscape:connector-curvature="0"
         sodipodi:nodetypes="ccccc" />
      <path
         style="fill:none;stroke:#000000;stroke-width:0.26458332px;stroke-linecap:butt;stroke-linejoin:miter;stroke-opacity:1"
         d="m 51.689862,220.76136 h 1.00226 c 0.696894,0.0177 2.13225,-1.79798 0.968851,-1.87088 -1.169304,0.0334 0.07776,1.85704 0.556135,1.86885 l 1.122587,0.002"
         id="path1062"
         inkscape:connector-curvature="0"
         sodipodi:nodetypes="ccccc" />
      <path
         sodipodi:nodetypes="ccccc"
         inkscape:connector-curvature="0"
         id="path1064"
         d="m 54.335695,220.76136 h 1.00226 c 0.696894,0.0177 2.13225,-1.79798 0.968851,-1.87088 -1.169304,0.0334 0.07776,1.85704 0.556135,1.86885 l 1.122587,0.002"
         style="fill:none;stroke:#000000;stroke-width:0.26458332px;stroke-linecap:butt;stroke-linejoin:miter;stroke-opacity:1" />
      <path
         style="fill:none;stroke:#000000;stroke-width:0.26458332px;stroke-linecap:butt;stroke-linejoin:miter;stroke-opacity:1"
         d="m 56.981528,220.76136 h 1.00226 c 0.696894,0.0177 2.13225,-1.79798 0.968851,-1.87088 -1.169304,0.0334 0.07776,1.85704 0.556135,1.86885 l 1.122587,0.002"
         id="path1066"
         inkscape:connector-curvature="0"
         sodipodi:nodetypes="ccccc" />
      <path
         sodipodi:nodetypes="ccccc"
         inkscape:connector-curvature="0"
         id="path1068"
         d="m 59.769102,220.76136 h 1.00226 c 0.696894,0.0177 2.13225,-1.79798 0.968851,-1.87088 -1.169304,0.0334 0.07776,1.85704 0.556135,1.86885 l 1.122587,0.002"
         style="fill:none;stroke:#000000;stroke-width:0.26458332px;stroke-linecap:butt;stroke-linejoin:miter;stroke-opacity:1" />
      <path
         style="fill:none;stroke:#000000;stroke-width:0.26458332px;stroke-linecap:butt;stroke-linejoin:miter;stroke-opacity:1"
         d="m 62.341571,220.76136 h 1.00226 c 0.696894,0.0177 2.13225,-1.79798 0.968851,-1.87088 -1.169304,0.0334 0.07776,1.85704 0.556135,1.86885 l 1.122587,0.002"
         id="path1070"
         inkscape:connector-curvature="0"
         sodipodi:nodetypes="ccccc" />
      <path
         sodipodi:nodetypes="ccccc"
         inkscape:connector-curvature="0"
         id="path1072"
         d="m 64.980858,220.76136 h 1.00226 c 0.696894,0.0177 2.13225,-1.79798 0.968851,-1.87088 -1.169304,0.0334 0.07776,1.85704 0.556135,1.86885 l 1.122587,0.002"
         style="fill:none;stroke:#000000;stroke-width:0.26458332px;stroke-linecap:butt;stroke-linejoin:miter;stroke-opacity:1" />
    </g>
    <g
       transform="matrix(0.95879619,0,0,1.0000771,1.6918795,-15.050869)"
       id="g1106"
       inkscape:export-xdpi="306.87"
       inkscape:export-ydpi="306.87">
      <path
         style="fill:none;stroke:#000000;stroke-width:0.26458332px;stroke-linecap:butt;stroke-linejoin:miter;stroke-opacity:1"
         d="m 41.059282,220.76136 h 1.00226 c 0.696894,0.0177 2.13225,-1.79798 0.968851,-1.87088 -1.169304,0.0334 0.07776,1.85704 0.556135,1.86885 l 1.122587,0.002"
         id="path1086"
         inkscape:connector-curvature="0"
         sodipodi:nodetypes="ccccc" />
      <path
         sodipodi:nodetypes="ccccc"
         inkscape:connector-curvature="0"
         id="path1088"
         d="m 43.705115,220.76136 h 1.00226 c 0.696894,0.0177 2.13225,-1.79798 0.968851,-1.87088 -1.169304,0.0334 0.07776,1.85704 0.556135,1.86885 l 1.122587,0.002"
         style="fill:none;stroke:#000000;stroke-width:0.26458332px;stroke-linecap:butt;stroke-linejoin:miter;stroke-opacity:1" />
      <path
         style="fill:none;stroke:#000000;stroke-width:0.26458332px;stroke-linecap:butt;stroke-linejoin:miter;stroke-opacity:1"
         d="m 46.350948,220.76136 h 1.00226 c 0.696894,0.0177 2.13225,-1.79798 0.968851,-1.87088 -1.169304,0.0334 0.07776,1.85704 0.556135,1.86885 l 1.122587,0.002"
         id="path1090"
         inkscape:connector-curvature="0"
         sodipodi:nodetypes="ccccc" />
      <path
         sodipodi:nodetypes="ccccc"
         inkscape:connector-curvature="0"
         id="path1092"
         d="m 49.138522,220.76136 h 1.00226 c 0.696894,0.0177 2.13225,-1.79798 0.968851,-1.87088 -1.169304,0.0334 0.07776,1.85704 0.556135,1.86885 l 1.122587,0.002"
         style="fill:none;stroke:#000000;stroke-width:0.26458332px;stroke-linecap:butt;stroke-linejoin:miter;stroke-opacity:1" />
      <path
         sodipodi:nodetypes="ccccc"
         inkscape:connector-curvature="0"
         id="path1094"
         d="m 51.689862,220.76136 h 1.00226 c 0.696894,0.0177 2.13225,-1.79798 0.968851,-1.87088 -1.169304,0.0334 0.07776,1.85704 0.556135,1.86885 l 1.122587,0.002"
         style="fill:none;stroke:#000000;stroke-width:0.26458332px;stroke-linecap:butt;stroke-linejoin:miter;stroke-opacity:1" />
      <path
         style="fill:none;stroke:#000000;stroke-width:0.26458332px;stroke-linecap:butt;stroke-linejoin:miter;stroke-opacity:1"
         d="m 54.335695,220.76136 h 1.00226 c 0.696894,0.0177 2.13225,-1.79798 0.968851,-1.87088 -1.169304,0.0334 0.07776,1.85704 0.556135,1.86885 l 1.122587,0.002"
         id="path1096"
         inkscape:connector-curvature="0"
         sodipodi:nodetypes="ccccc" />
      <path
         sodipodi:nodetypes="ccccc"
         inkscape:connector-curvature="0"
         id="path1098"
         d="m 56.981528,220.76136 h 1.00226 c 0.696894,0.0177 2.13225,-1.79798 0.968851,-1.87088 -1.169304,0.0334 0.07776,1.85704 0.556135,1.86885 l 1.122587,0.002"
         style="fill:none;stroke:#000000;stroke-width:0.26458332px;stroke-linecap:butt;stroke-linejoin:miter;stroke-opacity:1" />
      <path
         style="fill:none;stroke:#000000;stroke-width:0.26458332px;stroke-linecap:butt;stroke-linejoin:miter;stroke-opacity:1"
         d="m 59.769102,220.76136 h 1.00226 c 0.696894,0.0177 2.13225,-1.79798 0.968851,-1.87088 -1.169304,0.0334 0.07776,1.85704 0.556135,1.86885 l 1.122587,0.002"
         id="path1100"
         inkscape:connector-curvature="0"
         sodipodi:nodetypes="ccccc" />
      <path
         sodipodi:nodetypes="ccccc"
         inkscape:connector-curvature="0"
         id="path1102"
         d="m 62.341571,220.76136 h 1.00226 c 0.696894,0.0177 2.13225,-1.79798 0.968851,-1.87088 -1.169304,0.0334 0.07776,1.85704 0.556135,1.86885 l 1.122587,0.002"
         style="fill:none;stroke:#000000;stroke-width:0.26458332px;stroke-linecap:butt;stroke-linejoin:miter;stroke-opacity:1" />
      <path
         style="fill:none;stroke:#000000;stroke-width:0.26458332px;stroke-linecap:butt;stroke-linejoin:miter;stroke-opacity:1"
         d="m 64.980858,220.76136 h 1.00226 c 0.696894,0.0177 2.13225,-1.79798 0.968851,-1.87088 -1.169304,0.0334 0.07776,1.85704 0.556135,1.86885 l 1.122587,0.002"
         id="path1104"
         inkscape:connector-curvature="0"
         sodipodi:nodetypes="ccccc" />
    </g>
    <g
       id="g1128"
       transform="matrix(0.95879619,0,0,1.0000771,1.6918795,-31.220675)"
       inkscape:export-xdpi="306.87"
       inkscape:export-ydpi="306.87">
      <path
         sodipodi:nodetypes="ccccc"
         inkscape:connector-curvature="0"
         id="path1108"
         d="m 41.059282,220.76136 h 1.00226 c 0.696894,0.0177 2.13225,-1.79798 0.968851,-1.87088 -1.169304,0.0334 0.07776,1.85704 0.556135,1.86885 l 1.122587,0.002"
         style="fill:none;stroke:#000000;stroke-width:0.26458332px;stroke-linecap:butt;stroke-linejoin:miter;stroke-opacity:1" />
      <path
         style="fill:none;stroke:#000000;stroke-width:0.26458332px;stroke-linecap:butt;stroke-linejoin:miter;stroke-opacity:1"
         d="m 43.705115,220.76136 h 1.00226 c 0.696894,0.0177 2.13225,-1.79798 0.968851,-1.87088 -1.169304,0.0334 0.07776,1.85704 0.556135,1.86885 l 1.122587,0.002"
         id="path1110"
         inkscape:connector-curvature="0"
         sodipodi:nodetypes="ccccc" />
      <path
         sodipodi:nodetypes="ccccc"
         inkscape:connector-curvature="0"
         id="path1112"
         d="m 46.350948,220.76136 h 1.00226 c 0.696894,0.0177 2.13225,-1.79798 0.968851,-1.87088 -1.169304,0.0334 0.07776,1.85704 0.556135,1.86885 l 1.122587,0.002"
         style="fill:none;stroke:#000000;stroke-width:0.26458332px;stroke-linecap:butt;stroke-linejoin:miter;stroke-opacity:1" />
      <path
         style="fill:none;stroke:#000000;stroke-width:0.26458332px;stroke-linecap:butt;stroke-linejoin:miter;stroke-opacity:1"
         d="m 49.138522,220.76136 h 1.00226 c 0.696894,0.0177 2.13225,-1.79798 0.968851,-1.87088 -1.169304,0.0334 0.07776,1.85704 0.556135,1.86885 l 1.122587,0.002"
         id="path1114"
         inkscape:connector-curvature="0"
         sodipodi:nodetypes="ccccc" />
      <path
         style="fill:none;stroke:#000000;stroke-width:0.26458332px;stroke-linecap:butt;stroke-linejoin:miter;stroke-opacity:1"
         d="m 51.689862,220.76136 h 1.00226 c 0.696894,0.0177 2.13225,-1.79798 0.968851,-1.87088 -1.169304,0.0334 0.07776,1.85704 0.556135,1.86885 l 1.122587,0.002"
         id="path1116"
         inkscape:connector-curvature="0"
         sodipodi:nodetypes="ccccc" />
      <path
         sodipodi:nodetypes="ccccc"
         inkscape:connector-curvature="0"
         id="path1118"
         d="m 54.335695,220.76136 h 1.00226 c 0.696894,0.0177 2.13225,-1.79798 0.968851,-1.87088 -1.169304,0.0334 0.07776,1.85704 0.556135,1.86885 l 1.122587,0.002"
         style="fill:none;stroke:#000000;stroke-width:0.26458332px;stroke-linecap:butt;stroke-linejoin:miter;stroke-opacity:1" />
      <path
         style="fill:none;stroke:#000000;stroke-width:0.26458332px;stroke-linecap:butt;stroke-linejoin:miter;stroke-opacity:1"
         d="m 56.981528,220.76136 h 1.00226 c 0.696894,0.0177 2.13225,-1.79798 0.968851,-1.87088 -1.169304,0.0334 0.07776,1.85704 0.556135,1.86885 l 1.122587,0.002"
         id="path1120"
         inkscape:connector-curvature="0"
         sodipodi:nodetypes="ccccc" />
      <path
         sodipodi:nodetypes="ccccc"
         inkscape:connector-curvature="0"
         id="path1122"
         d="m 59.769102,220.76136 h 1.00226 c 0.696894,0.0177 2.13225,-1.79798 0.968851,-1.87088 -1.169304,0.0334 0.07776,1.85704 0.556135,1.86885 l 1.122587,0.002"
         style="fill:none;stroke:#000000;stroke-width:0.26458332px;stroke-linecap:butt;stroke-linejoin:miter;stroke-opacity:1" />
      <path
         style="fill:none;stroke:#000000;stroke-width:0.26458332px;stroke-linecap:butt;stroke-linejoin:miter;stroke-opacity:1"
         d="m 62.341571,220.76136 h 1.00226 c 0.696894,0.0177 2.13225,-1.79798 0.968851,-1.87088 -1.169304,0.0334 0.07776,1.85704 0.556135,1.86885 l 1.122587,0.002"
         id="path1124"
         inkscape:connector-curvature="0"
         sodipodi:nodetypes="ccccc" />
      <path
         sodipodi:nodetypes="ccccc"
         inkscape:connector-curvature="0"
         id="path1126"
         d="m 64.980858,220.76136 h 1.00226 c 0.696894,0.0177 2.13225,-1.79798 0.968851,-1.87088 -1.169304,0.0334 0.07776,1.85704 0.556135,1.86885 l 1.122587,0.002"
         style="fill:none;stroke:#000000;stroke-width:0.26458332px;stroke-linecap:butt;stroke-linejoin:miter;stroke-opacity:1" />
    </g>
    <text
       inkscape:export-ydpi="306.87"
       inkscape:export-xdpi="306.87"
       id="text1132"
       y="164.61505"
       x="22.488436"
       style="font-style:normal;font-weight:normal;font-size:10.58333302px;line-height:1.25;font-family:sans-serif;letter-spacing:0px;word-spacing:0px;fill:#000000;fill-opacity:1;stroke:none;stroke-width:0.26458332"
       xml:space="preserve"><tspan
         style="stroke-width:0.26458332"
         y="164.61505"
         x="22.488436"
         id="tspan1130"
         sodipodi:role="line">q</tspan></text>
    <text
       inkscape:export-ydpi="306.87"
       inkscape:export-xdpi="306.87"
       xml:space="preserve"
       style="font-style:normal;font-weight:normal;font-size:10.58333302px;line-height:1.25;font-family:sans-serif;letter-spacing:0px;word-spacing:0px;fill:#000000;fill-opacity:1;stroke:none;stroke-width:0.26458332"
       x="22.488436"
       y="249.87404"
       id="text1136"><tspan
         sodipodi:role="line"
         id="tspan1134"
         x="22.488436"
         y="249.87404"
         style="stroke-width:0.26458332">q</tspan></text>
    <path
       inkscape:export-ydpi="306.87"
       inkscape:export-xdpi="306.87"
       inkscape:connector-curvature="0"
       id="path1138"
       d="M 23.290246,242.85817 H 28.03428"
       style="fill:none;stroke:#000000;stroke-width:0.96499997;stroke-linecap:butt;stroke-linejoin:miter;stroke-miterlimit:4;stroke-dasharray:none;stroke-opacity:1" />
    <path
       inkscape:export-ydpi="306.87"
       inkscape:export-xdpi="306.87"
       sodipodi:nodetypes="ccc"
       inkscape:connector-curvature="0"
       id="path1140"
       d="m 80.1005,167.43292 c 0,0 5.94674,-6.74856 3.4745,-7.61718 -2.47224,-0.26727 -1.73725,3.67495 0.53454,7.55036"
       style="fill:none;stroke:#000000;stroke-width:0.86500001;stroke-linecap:butt;stroke-linejoin:miter;stroke-miterlimit:4;stroke-dasharray:none;stroke-opacity:1" />
    <path
       inkscape:export-ydpi="306.87"
       inkscape:export-xdpi="306.87"
       style="fill:none;stroke:#000000;stroke-width:0.86500001;stroke-linecap:butt;stroke-linejoin:miter;stroke-miterlimit:4;stroke-dasharray:none;stroke-opacity:1"
       d="m 80.1005,167.43292 c 0,0 5.94674,-6.74856 3.4745,-7.61718 -2.47224,-0.26727 -1.73725,3.67495 0.53454,7.55036"
       id="path1142"
       inkscape:connector-curvature="0"
       sodipodi:nodetypes="ccc" />
    <path
       inkscape:export-ydpi="306.87"
       inkscape:export-xdpi="306.87"
       sodipodi:nodetypes="ccc"
       inkscape:connector-curvature="0"
       id="path1144"
       d="m 80.1005,167.43292 c 0,0 5.94674,-6.74856 3.4745,-7.61718 -2.47224,-0.26727 -1.73725,3.67495 0.53454,7.55036"
       style="fill:none;stroke:#000000;stroke-width:0.86500001;stroke-linecap:butt;stroke-linejoin:miter;stroke-miterlimit:4;stroke-dasharray:none;stroke-opacity:1" />
    <path
       inkscape:export-ydpi="306.87"
       inkscape:export-xdpi="306.87"
       inkscape:connector-curvature="0"
       id="path1146"
       d="m 85.96696,160.10777 h 2.74033"
       style="fill:none;stroke:#000000;stroke-width:0.86500001;stroke-linecap:butt;stroke-linejoin:miter;stroke-miterlimit:4;stroke-dasharray:none;stroke-opacity:1" />
    <path
       inkscape:export-ydpi="306.87"
       inkscape:export-xdpi="306.87"
       style="fill:none;stroke:#000000;stroke-width:0.86500001;stroke-linecap:butt;stroke-linejoin:miter;stroke-miterlimit:4;stroke-dasharray:none;stroke-opacity:1"
       d="m 80.1005,250.24759 c 0,0 5.94674,-6.74856 3.4745,-7.61718 -2.47224,-0.26727 -1.73725,3.67495 0.53454,7.55036"
       id="path1148"
       inkscape:connector-curvature="0"
       sodipodi:nodetypes="ccc" />
    <path
       inkscape:export-ydpi="306.87"
       inkscape:export-xdpi="306.87"
       sodipodi:nodetypes="ccc"
       inkscape:connector-curvature="0"
       id="path1150"
       d="m 80.1005,250.24759 c 0,0 5.94674,-6.74856 3.4745,-7.61718 -2.47224,-0.26727 -1.73725,3.67495 0.53454,7.55036"
       style="fill:none;stroke:#000000;stroke-width:0.86500001;stroke-linecap:butt;stroke-linejoin:miter;stroke-miterlimit:4;stroke-dasharray:none;stroke-opacity:1" />
    <path
       inkscape:export-ydpi="306.87"
       inkscape:export-xdpi="306.87"
       style="fill:none;stroke:#000000;stroke-width:0.86500001;stroke-linecap:butt;stroke-linejoin:miter;stroke-miterlimit:4;stroke-dasharray:none;stroke-opacity:1"
       d="m 80.1005,250.24759 c 0,0 5.94674,-6.74856 3.4745,-7.61718 -2.47224,-0.26727 -1.73725,3.67495 0.53454,7.55036"
       id="path1152"
       inkscape:connector-curvature="0"
       sodipodi:nodetypes="ccc" />
    <path
       inkscape:export-ydpi="306.87"
       inkscape:export-xdpi="306.87"
       style="fill:none;stroke:#000000;stroke-width:0.86500001;stroke-linecap:butt;stroke-linejoin:miter;stroke-miterlimit:4;stroke-dasharray:none;stroke-opacity:1"
       d="m 85.96696,242.92244 h 2.74033"
       id="path1154"
       inkscape:connector-curvature="0" />
    <path
       inkscape:export-ydpi="306.87"
       inkscape:export-xdpi="306.87"
       inkscape:connector-curvature="0"
       id="path1156"
       d="m 87.33713,241.55228 v 2.74033"
       style="fill:none;stroke:#000000;stroke-width:0.86500001;stroke-linecap:butt;stroke-linejoin:miter;stroke-miterlimit:4;stroke-dasharray:none;stroke-opacity:1" />
    <path
       inkscape:connector-curvature="0"
       id="path1655"
       d="M 18.013963,126.61567 38.994623,103.76413 18.013963,80.912588"
       style="fill:none;stroke:#000000;stroke-width:0.26458332px;stroke-linecap:butt;stroke-linejoin:miter;stroke-opacity:1"
       sodipodi:nodetypes="ccc" />
    <path
       sodipodi:nodetypes="ccc"
       style="fill:none;stroke:#000000;stroke-width:0.26458332px;stroke-linecap:butt;stroke-linejoin:miter;stroke-opacity:1"
       d="M 16.426453,126.61567 37.407113,103.76413 16.426453,80.912588"
       id="path1659"
       inkscape:connector-curvature="0" />
    <path
       sodipodi:nodetypes="ccc"
       style="fill:none;stroke:#000000;stroke-width:0.26458332px;stroke-linecap:butt;stroke-linejoin:miter;stroke-opacity:1"
       d="M 95.985833,126.61567 75.005173,103.76413 95.985833,80.912588"
       id="path1667"
       inkscape:connector-curvature="0" />
    <path
       inkscape:connector-curvature="0"
       id="path1669"
       d="m 94.398323,126.61567 -20.38736,-22.26996 h -12.21941 -21.80272 l -20.38736,22.26996"
       style="fill:none;stroke:#000000;stroke-width:0.26458332px;stroke-linecap:butt;stroke-linejoin:miter;stroke-opacity:1"
       sodipodi:nodetypes="ccccc" />
    <path
       inkscape:connector-curvature="0"
       id="path1671"
       d="M 97.573343,126.61567 76.592683,103.76413 97.573343,80.912588"
       style="fill:none;stroke:#000000;stroke-width:0.26458332px;stroke-linecap:butt;stroke-linejoin:miter;stroke-opacity:1"
       sodipodi:nodetypes="ccc" />
    <path
       sodipodi:nodetypes="ccccc"
       inkscape:transform-center-y="-0.84262114"
       inkscape:transform-center-x="5.1584908"
       inkscape:connector-curvature="0"
       id="path1673"
       d="M 94.398323,80.912588 74.010963,103.18071 H 61.791553 39.988833 L 19.601473,80.912588"
       style="fill:none;stroke:#000000;stroke-width:0.26458332px;stroke-linecap:butt;stroke-linejoin:miter;stroke-opacity:1" />
    <path
       inkscape:export-ydpi="185.06"
       inkscape:export-xdpi="185.06"
       inkscape:connector-curvature="0"
       id="path1679"
       d="M 9.9691527,71.033514 H 14.759963"
       style="fill:none;stroke:#000000;stroke-width:0.49251774;stroke-linecap:butt;stroke-linejoin:miter;stroke-miterlimit:4;stroke-dasharray:none;stroke-opacity:1" />
    <text
       inkscape:export-ydpi="185.06"
       inkscape:export-xdpi="185.06"
       id="text1683"
       y="66.199753"
       x="11.397965"
       style="font-style:italic;font-variant:normal;font-weight:normal;font-stretch:normal;font-size:7.9893961px;line-height:1.25;font-family:'DejaVu Serif';-inkscape-font-specification:'DejaVu Serif Italic';letter-spacing:0px;word-spacing:0px;fill:#000000;fill-opacity:1;stroke:none;stroke-width:0.23968185"
       xml:space="preserve"
       transform="scale(0.86461047,1.1565902)"><tspan
         style="font-style:italic;font-variant:normal;font-weight:normal;font-stretch:normal;font-size:7.9893961px;font-family:'URW Bookman';-inkscape-font-specification:'URW Bookman Italic';stroke-width:0.23968185"
         y="66.199753"
         x="11.397965"
         id="tspan1681"
         sodipodi:role="line">q</tspan></text>
    <text
       transform="scale(0.86461047,1.1565902)"
       xml:space="preserve"
       style="font-style:italic;font-variant:normal;font-weight:normal;font-stretch:normal;font-size:7.9893961px;line-height:1.25;font-family:'DejaVu Serif';-inkscape-font-specification:'DejaVu Serif Italic';letter-spacing:0px;word-spacing:0px;fill:#000000;fill-opacity:1;stroke:none;stroke-width:0.23968185"
       x="11.397967"
       y="115.94059"
       id="text1687"
       inkscape:export-xdpi="185.06"
       inkscape:export-ydpi="185.06"><tspan
         sodipodi:role="line"
         id="tspan1685"
         x="11.397967"
         y="115.94059"
         style="font-style:italic;font-variant:normal;font-weight:normal;font-stretch:normal;font-size:7.9893961px;font-family:'URW Bookman';-inkscape-font-specification:'URW Bookman Italic';stroke-width:0.23968185">q</tspan></text>
    <path
       style="fill:#000000;fill-opacity:1;stroke:#000000;stroke-width:0.26458332px;stroke-linecap:butt;stroke-linejoin:miter;stroke-opacity:1"
       d="m 97.056593,77.544662 c 0,0 2.44127,-2.537198 3.206897,-3.641446 0.40479,-0.5838 0.62956,-2.35302 0.27403,-2.468776 -1.297867,-0.42257 -2.207617,2.224154 -2.422597,3.050977 -0.21497,0.826823 -0.37206,2.811198 -0.0744,3.323828 0.29766,0.512631 0.49267,0.74677 1.6585,0.366432 0.536027,-0.225921 0.741337,-0.742342 0.741337,-0.742342 0,0 -0.28286,0.697368 -1.070737,0.839226 -0.38447,0.07442 -1.01486,0.09479 -1.16369,-0.864325 -0.14883,-0.959114 0.30593,-3.112988 0.7524,-4.204394 0.80203,-1.546158 1.197247,-2.079754 1.635447,-1.691148 0.39687,0.446482 -0.0575,2.109402 -0.876427,2.993099 -0.35117,0.378912 -2.66076,3.038869 -2.66076,3.038869 z"
       id="path1689"
       inkscape:connector-curvature="0"
       sodipodi:nodetypes="csscscccsccsc" />
    <path
       style="fill:none;stroke:#000000;stroke-width:0.49251774;stroke-linecap:butt;stroke-linejoin:miter;stroke-miterlimit:4;stroke-dasharray:none;stroke-opacity:1"
       d="m 101.48339,73.118888 h 4.79081"
       id="path1704"
       inkscape:connector-curvature="0"
       inkscape:export-xdpi="185.06"
       inkscape:export-ydpi="185.06" />
    <path
       inkscape:export-ydpi="185.06"
       inkscape:export-xdpi="185.06"
       inkscape:connector-curvature="0"
       id="path1706"
       d="m 103.87879,75.514293 v -4.79081"
       style="fill:none;stroke:#000000;stroke-width:0.49251774;stroke-linecap:butt;stroke-linejoin:miter;stroke-miterlimit:4;stroke-dasharray:none;stroke-opacity:1" />
    <path
       inkscape:export-ydpi="185.06"
       inkscape:export-xdpi="185.06"
       inkscape:connector-curvature="0"
       id="path1708"
       d="m 101.48339,131.39701 h 4.79081"
       style="fill:none;stroke:#000000;stroke-width:0.49251774;stroke-linecap:butt;stroke-linejoin:miter;stroke-miterlimit:4;stroke-dasharray:none;stroke-opacity:1" />
    <path
       sodipodi:nodetypes="csscscccsccsc"
       inkscape:connector-curvature="0"
       id="path1712"
       d="m 97.056593,135.8492 c 0,0 2.44127,-2.5372 3.206897,-3.64144 0.40479,-0.5838 0.62956,-2.35302 0.27403,-2.46878 -1.297867,-0.42257 -2.207617,2.22415 -2.422597,3.05098 -0.21497,0.82682 -0.37206,2.8112 -0.0744,3.32383 0.29766,0.51263 0.49267,0.74677 1.6585,0.36643 0.536027,-0.22592 0.741337,-0.74234 0.741337,-0.74234 0,0 -0.28286,0.69736 -1.070737,0.83922 -0.38447,0.0744 -1.01486,0.0948 -1.16369,-0.86432 -0.14883,-0.95912 0.30593,-3.11299 0.7524,-4.2044 0.80203,-1.54616 1.197247,-2.07975 1.635447,-1.69115 0.39687,0.44649 -0.0575,2.10941 -0.876427,2.9931 -0.35117,0.37892 -2.66076,3.03887 -2.66076,3.03887 z"
       style="fill:#000000;fill-opacity:1;stroke:#000000;stroke-width:0.26458332px;stroke-linecap:butt;stroke-linejoin:miter;stroke-opacity:1" />
    <path
       inkscape:connector-curvature="0"
       id="path1716"
       d="m 125.87745,125.7668 20.98066,-12.2682 m 0,-16.933344 -20.98066,-16.501545"
       style="fill:none;stroke:#000000;stroke-width:0.26458332px;stroke-linecap:butt;stroke-linejoin:miter;stroke-opacity:1"
       sodipodi:nodetypes="cccc" />
    <path
       inkscape:connector-curvature="0"
       id="path1726"
       d="m 127.46083,126.19174 20.98066,-12.2682 m 0,-16.933337 -20.98066,-16.501545"
       style="fill:none;stroke:#000000;stroke-width:0.26458332px;stroke-linecap:butt;stroke-linejoin:miter;stroke-opacity:1"
       sodipodi:nodetypes="cccc" />
    <path
       sodipodi:nodetypes="cccc"
       style="fill:none;stroke:#000000;stroke-width:0.26458332px;stroke-linecap:butt;stroke-linejoin:miter;stroke-opacity:1"
       d="m 129.04834,126.61567 20.98066,-12.2682 m 0,-16.933337 -20.98066,-16.501545"
       id="path1732"
       inkscape:connector-curvature="0" />
    <circle
       style="opacity:1;fill:#ff0000;fill-opacity:1;stroke:none;stroke-width:0.62439561;stroke-miterlimit:4;stroke-dasharray:none;stroke-opacity:1"
       id="path1734"
       cx="129.6093"
       cy="129.94321"
       r="0.45023081" />
  </g>
</svg>
